<svg width="50" height="61" viewBox="0 0 50 61" fill="none" xmlns="http://www.w3.org/2000/svg">
<path d="M3.324 60.84C2.372 60.84 1.616 60.56 1.056 60C0.496 59.384 0.216 58.544 0.216 57.48V23.208C0.216 18.56 1.196 14.528 3.156 11.112C5.172 7.64 8.028 4.98 11.724 3.132C15.42 1.284 19.76 0.359997 24.744 0.359997C29.728 0.359997 34.04 1.284 37.68 3.132C41.376 4.98 44.204 7.64 46.164 11.112C48.18 14.528 49.188 18.56 49.188 23.208V57.48C49.188 58.544 48.908 59.384 48.348 60C47.844 60.56 47.088 60.84 46.08 60.84C45.128 60.84 44.344 60.56 43.728 60C43.168 59.384 42.888 58.544 42.888 57.48V22.956C42.888 17.524 41.292 13.296 38.1 10.272C34.908 7.248 30.456 5.736 24.744 5.736C19.144 5.736 14.692 7.276 11.388 10.356C8.14 13.436 6.516 17.636 6.516 22.956V57.48C6.516 58.544 6.236 59.384 5.676 60C5.116 60.56 4.332 60.84 3.324 60.84Z" fill="white"/>
</svg>
